<?xml version="1.0" encoding="UTF-8"?>
<svg width="185px" height="50px" viewBox="0 0 185 50" version="1.1" xmlns="http://www.w3.org/2000/svg" xmlns:xlink="http://www.w3.org/1999/xlink">
    <!-- Generator: Sketch 50.2 (55047) - http://www.bohemiancoding.com/sketch -->
    <title>logo</title>
    <desc>Created with Sketch.</desc>
    <defs>
        <polygon id="path-1" points="0.499138017 0.2552 14.1045124 0.2552 14.1045124 22.1946286 0.499138017 22.1946286"></polygon>
        <linearGradient x1="85.7133676%" y1="-16.6689974%" x2="0.00754433521%" y2="83.3354474%" id="linearGradient-3">
            <stop stop-color="#00ACED" offset="0%"></stop>
            <stop stop-color="#2D3190" offset="100%"></stop>
        </linearGradient>
        <linearGradient x1="116.675461%" y1="87.4972302%" x2="49.9940144%" y2="37.4887868%" id="linearGradient-4">
            <stop stop-color="#EB287B" offset="0%"></stop>
            <stop stop-color="#642D90" offset="100%"></stop>
        </linearGradient>
        <linearGradient x1="116.670672%" y1="87.4968256%" x2="49.9948737%" y2="37.4866351%" id="linearGradient-5">
            <stop stop-color="#EB287B" offset="0%"></stop>
            <stop stop-color="#642D90" offset="100%"></stop>
        </linearGradient>
        <linearGradient x1="14.2871984%" y1="116.668484%" x2="99.9947403%" y2="16.6664889%" id="linearGradient-6">
            <stop stop-color="#00ACED" offset="0%"></stop>
            <stop stop-color="#2D3190" offset="100%"></stop>
        </linearGradient>
        <linearGradient x1="44.7017406%" y1="11.6623734%" x2="0%" y2="46.3089082%" id="linearGradient-7">
            <stop stop-color="#EE4036" offset="0%"></stop>
            <stop stop-color="#F05A28" offset="43.3422686%"></stop>
            <stop stop-color="#F6921E" offset="100%"></stop>
        </linearGradient>
    </defs>
    <g id="Page-1" stroke="none" stroke-width="1" fill="none" fill-rule="evenodd">
        <g id="appsharp-landing" transform="translate(-250.000000, -24.000000)">
            <g id="nav" transform="translate(250.000000, 24.000000)">
                <g id="logo">
                    <g id="Group">
                        <g id="Group-18" transform="translate(46.666667, 11.333333)">
                            <path d="M11.258462,9.59485714 C11.0383463,8.97028571 10.833057,8.36628571 10.6431645,7.78114286 C10.4527017,7.19771429 10.3078587,6.70342857 10.2080653,6.3 C10.1065612,6.70342857 9.96171818,7.19771429 9.77182562,7.78114286 C9.58136281,8.36628571 9.37607355,8.97028571 9.1565281,9.59485714 L7.80447025,13.4337143 L12.6093793,13.4337143 L11.258462,9.59485714 Z M15.7035446,22.1011429 L14.0509661,17.4057143 L6.36345372,17.4057143 L4.71087521,22.1011429 L0.206486777,22.1011429 L8.25496612,1.03428571 L12.3396521,1.03428571 L20.3288256,22.1011429 L15.7035446,22.1011429 Z" id="Fill-1" fill="#2A2B2A"></path>
                            <path d="M32.942938,14.4866286 C32.942938,12.8614857 32.6977314,11.6877714 32.2067479,10.9654857 C31.7163347,10.2432 31.0611198,9.88148571 30.2399628,9.88148571 C29.5990041,9.88148571 29.088062,10.0026286 28.7077066,10.2432 C28.3273512,10.4837714 27.9869132,10.8049143 27.6869628,11.2066286 L27.6869628,17.1649143 C28.3473099,18.0683429 29.279095,18.5197714 30.4800372,18.5197714 C32.121781,18.5197714 32.942938,17.1752 32.942938,14.4866286 M37.1479463,14.3963429 C37.1479463,15.5803429 37.0127975,16.6637714 36.7419298,17.6466286 C36.471062,18.6300571 36.0758802,19.4774857 35.5552438,20.1894857 C35.0346074,20.9026286 34.394219,21.4534857 33.6335083,21.8454857 C32.8722273,22.2369143 32.0014587,22.4317714 31.0212025,22.4317714 C30.3192273,22.4317714 29.6845413,22.3112 29.1137231,22.0706286 C28.5423347,21.8300571 28.0667479,21.5392 27.6869628,21.1980571 L27.6869628,25.8329143 L23.5424008,27.9089143 L23.5424008,6.30034286 L27.6869628,6.30034286 L27.6869628,7.29405714 C28.0872769,6.95234286 28.5525992,6.64662857 29.0835,6.37634286 C29.6138306,6.10491429 30.258781,5.96948571 31.0212025,5.96948571 C31.8617479,5.96948571 32.6521116,6.13062857 33.3928636,6.45062857 C34.1336157,6.77234286 34.7848388,7.2792 35.3459628,7.97177143 C35.9059463,8.6632 36.3461777,9.54091429 36.666657,10.6043429 C36.9871364,11.6683429 37.1479463,12.9323429 37.1479463,14.3963429" id="Fill-3" fill="#2A2B2A"></path>
                            <path d="M49.8217636,14.4866286 C49.8217636,12.8614857 49.5759868,11.6877714 49.0850033,10.9654857 C48.5945901,10.2432 47.9393752,9.88148571 47.1182182,9.88148571 C46.4766893,9.88148571 45.9668876,10.0026286 45.5865322,10.2432 C45.2061769,10.4837714 44.8657388,10.8049143 44.5652182,11.2066286 L44.5652182,17.1649143 C45.2261355,18.0683429 46.1573504,18.5197714 47.3588628,18.5197714 C49.0000364,18.5197714 49.8217636,17.1752 49.8217636,14.4866286 M54.0262017,14.3963429 C54.0262017,15.5803429 53.8904826,16.6637714 53.6207554,17.6466286 C53.3498876,18.6300571 52.9541355,19.4774857 52.4340694,20.1894857 C51.9128628,20.9026286 51.2730446,21.4534857 50.5123339,21.8454857 C49.7504826,22.2369143 48.8802843,22.4317714 47.8994579,22.4317714 C47.1974826,22.4317714 46.5622264,22.3112 45.9919785,22.0706286 C45.4211603,21.8300571 44.9455736,21.5392 44.5652182,21.1980571 L44.5652182,25.8329143 L40.4206562,27.9089143 L40.4206562,6.30034286 L44.5652182,6.30034286 L44.5652182,7.29405714 C44.9655322,6.95234286 45.4314248,6.64662857 45.9617554,6.37634286 C46.4926562,6.10491429 47.1376066,5.96948571 47.8994579,5.96948571 C48.7405736,5.96948571 49.5309372,6.13062857 50.2716893,6.45062857 C51.0124413,6.77234286 51.6636645,7.2792 52.2242182,7.97177143 C52.7847719,8.6632 53.2250033,9.54091429 53.5454826,10.6043429 C53.865962,11.6683429 54.0262017,12.9323429 54.0262017,14.3963429" id="Fill-5" fill="#2A2B2A"></path>
                            <path d="M73.3979802,15.7209714 C73.3979802,16.7244 73.2377405,17.6369714 72.9172612,18.4592571 C72.5967818,19.2821143 72.0961041,19.9895429 71.4157983,20.5815429 C70.7349223,21.1729714 69.8789802,21.6301143 68.8474017,21.9501143 C67.8158231,22.2712571 66.5800959,22.4318286 65.1385091,22.4318286 C63.376443,22.4318286 61.7746165,22.0906857 60.3330298,21.4084 C58.891443,20.7272571 57.7703355,19.7941143 56.9697074,18.6101143 L60.0028562,15.9009714 C60.7436083,16.7644 61.5693273,17.3809714 62.4805835,17.7524 C63.3912694,18.1232571 64.3572694,18.3084 65.3785835,18.3084 C66.6399719,18.3084 67.5660545,18.1284 68.1562612,17.7672571 C68.7476083,17.4055429 69.0424264,16.8244 69.0424264,16.0209714 C69.0424264,15.6809714 68.9825504,15.3844 68.8627983,15.1335429 C68.742476,14.8826857 68.5166579,14.6472571 68.1870545,14.4261143 C67.8563107,14.2061143 67.380724,13.9946857 66.7602942,13.7946857 C66.1392942,13.5935429 65.3386661,13.3832571 64.3572694,13.1621143 C63.3964017,12.9415429 62.5102364,12.6815429 61.6993438,12.3798286 C60.8884512,12.0786857 60.1927488,11.6981143 59.6122364,11.2364 C59.0311537,10.7746857 58.5812281,10.1929714 58.2607488,9.49068571 C57.9402694,8.7884 57.7806,7.91582857 57.7806,6.8724 C57.7806,5.90897143 57.9756248,5.04668571 58.3656744,4.28382857 C58.7562942,3.52154286 59.291757,2.87468571 59.9726331,2.34268571 C60.6535091,1.81182857 61.449005,1.40554286 62.3602612,1.1244 C63.2709471,0.843257143 64.2477818,0.702685714 65.2890545,0.702685714 C66.9296579,0.702685714 68.3672529,0.994114286 69.5978479,1.57525714 C70.8301537,2.15811429 71.9455587,2.97068571 72.946914,4.01354286 L69.9143355,6.96268571 C69.2334595,6.2604 68.5069636,5.7244 67.7359884,5.3524 C66.9655835,4.98154286 66.0993769,4.79582857 65.1385091,4.79582857 C64.5779554,4.79582857 64.1069306,4.85182857 63.7271455,4.96154286 C63.3462198,5.07182857 63.036005,5.21697143 62.7959306,5.39754286 C62.555286,5.57811429 62.3859223,5.77982857 62.2855587,5.99982857 C62.1846248,6.2204 62.1350132,6.45068571 62.1350132,6.69125714 C62.1350132,7.03354286 62.2000215,7.31868571 62.330038,7.54954286 C62.4600545,7.7804 62.6853025,7.98611429 63.0063521,8.16668571 C63.3256909,8.34782857 63.7567983,8.51811429 64.2973934,8.67811429 C64.8379884,8.83925714 65.5291289,9.01925714 66.3702446,9.21925714 C67.2102198,9.42097143 68.0467736,9.6564 68.8770545,9.92668571 C69.708476,10.1981143 70.4589223,10.5741143 71.1301041,11.0558286 C71.8001455,11.5369714 72.346443,12.1495429 72.7678562,12.8918286 C73.1875587,13.6341143 73.3979802,14.5769714 73.3979802,15.7209714" id="Fill-7" fill="#2A2B2A"></path>
                            <path d="M86.6720975,22.1010286 L86.6720975,13.5541714 C86.6720975,12.1496 86.4411471,11.1861714 85.980957,10.6644571 C85.5207669,10.1427429 84.8598496,9.8816 83.9993455,9.8816 C83.1377008,9.8816 82.4727917,10.1381714 82.0017669,10.6490286 C81.5307421,11.1604571 81.2958,12.0993143 81.2958,13.4633143 L81.2958,22.1010286 L77.151238,22.1010286 L77.151238,2.2376 L81.2958,0.160457143 L81.2958,7.3536 C81.6561967,6.97245714 82.1523124,6.64674286 82.7830066,6.37588571 C83.4125603,6.10502857 84.1493207,5.9696 84.9898661,5.9696 C86.9925769,5.9696 88.4643868,6.61645714 89.4052959,7.91074286 C90.3456347,9.20502857 90.8160893,10.9656 90.8160893,13.1930286 L90.8160893,22.1010286 L86.6720975,22.1010286 Z" id="Fill-9" fill="#2A2B2A"></path>
                            <path d="M103.369926,15.4793714 C103.00953,15.2588 102.623472,15.0936571 102.213464,14.9828 C101.802885,14.8725143 101.227505,14.8182286 100.486753,14.8182286 C99.7060835,14.8182286 99.1107446,14.9890857 98.7007364,15.3290857 C98.2884471,15.6708 98.0837281,16.1616571 98.0837281,16.8039429 C98.0837281,17.3662286 98.2644967,17.8570857 98.6248934,18.2788 C98.9852901,18.6999429 99.6051496,18.9108 100.486753,18.9108 C101.167629,18.9108 101.762968,18.7656571 102.27448,18.4742286 C102.784282,18.1839429 103.14924,17.8479429 103.369926,17.4662286 L103.369926,15.4793714 Z M103.369926,22.1010857 L103.369926,21.0473714 C102.989571,21.4490857 102.488323,21.7799429 101.868464,22.0405143 C101.247464,22.3010857 100.566588,22.4319429 99.8258355,22.4319429 C99.0850835,22.4319429 98.3642901,22.3165143 97.6634554,22.0862286 C96.9626207,21.8553714 96.3370587,21.5090857 95.7873397,21.0473714 C95.2359099,20.5868 94.7905463,20.0045143 94.449538,19.3016571 C94.1091,18.5999429 93.9397364,17.7673714 93.9397364,16.8039429 C93.9397364,15.9416571 94.1051083,15.1793714 94.4358521,14.5165143 C94.7660256,13.8542286 95.2205132,13.3085143 95.8015959,12.8765143 C96.3826785,12.4456571 97.0578521,12.1193714 97.8288273,11.8982286 C98.5992322,11.6776571 99.435786,11.5673714 100.337348,11.5673714 C101.058141,11.5673714 101.658042,11.6330857 102.139331,11.7633714 C102.61948,11.8942286 103.029488,12.0388 103.369926,12.1993714 L103.369926,11.4170857 C103.369926,10.8553714 103.184596,10.3788 102.814505,9.98794286 C102.443844,9.59651429 101.878728,9.39994286 101.118017,9.39994286 C100.637869,9.39994286 100.211893,9.42051429 99.8418025,9.46108571 C99.4711413,9.50051429 99.1204388,9.56165714 98.7902653,9.64108571 C98.4595215,9.72165714 98.1333397,9.8268 97.8145711,9.95765714 C97.4940917,10.0879429 97.1536537,10.2536571 96.793257,10.4536571 L95.2005545,7.56394286 C95.6618851,7.30394286 96.1066785,7.07365714 96.5383562,6.87194286 C96.9683231,6.67251429 97.4182488,6.5068 97.8887033,6.37594286 C98.3585876,6.24565714 98.8541331,6.14565714 99.3759099,6.0748 C99.8954058,6.00508571 100.477059,5.96908571 101.118017,5.96908571 C102.079455,5.96908571 102.949654,6.08965714 103.730323,6.33022857 C104.510993,6.57137143 105.182174,6.92794286 105.743298,7.3988 C106.303282,7.8708 106.738951,8.45251429 107.049736,9.14451429 C107.359951,9.83708571 107.515629,10.6245143 107.515629,11.5073714 L107.515629,22.1010857 L103.369926,22.1010857 Z" id="Fill-11" fill="#2A2B2A"></path>
                            <path d="M120.609377,11.1456571 C120.268939,10.8456571 119.898278,10.5999429 119.497964,10.4085143 C119.09765,10.2182286 118.667683,10.1222286 118.206352,10.1222286 C117.805468,10.1222286 117.441079,10.1730857 117.110906,10.2730857 C116.780162,10.3736571 116.4996,10.5542286 116.27036,10.8148 C116.03941,11.0759429 115.858641,11.4268 115.728625,11.8685143 C115.598038,12.3096571 115.5336,12.8719429 115.5336,13.5542286 L115.5336,22.1010857 L111.388468,22.1010857 L111.388468,6.30051429 L115.5336,6.30051429 L115.5336,7.35365714 C115.893997,6.97251429 116.339931,6.6468 116.869691,6.37594286 C117.400021,6.10508571 118.036418,5.96908571 118.77717,5.96908571 C119.458046,5.96908571 120.043691,6.08565714 120.533534,6.31537143 C121.025088,6.5468 121.410005,6.80222857 121.690567,7.08337143 L120.609377,11.1456571 Z" id="Fill-13" fill="#2A2B2A"></path>
                            <g id="Group-17" transform="translate(123.743802, 5.714286)">
                                <mask id="mask-2" fill="white">
                                    <use xlink:href="#path-1"></use>
                                </mask>
                                <g id="Clip-16"></g>
                                <path d="M9.89967521,8.77234286 C9.89967521,7.1472 9.6544686,5.97348571 9.16462562,5.2512 C8.6730719,4.52891429 8.01785702,4.1672 7.19727025,4.1672 C6.55631157,4.1672 6.04479917,4.28834286 5.66615455,4.52891429 C5.28408843,4.76948571 4.94536116,5.09062857 4.6448405,5.49234286 L4.6448405,11.4506286 C5.30575785,12.3540571 6.23583223,12.8054857 7.43791488,12.8054857 C9.07908843,12.8054857 9.89967521,11.4609143 9.89967521,8.77234286 M14.1046835,8.68205714 C14.1046835,9.86605714 13.9695347,10.9494857 13.6986669,11.9323429 C13.4295099,12.9157714 13.0337579,13.7632 12.5131215,14.4752 C11.9919149,15.1883429 11.3509562,15.7392 10.5902455,16.1312 C9.82953471,16.5226286 8.95933636,16.7174857 7.97793967,16.7174857 C7.27710496,16.7174857 6.64184876,16.5969143 6.07046033,16.3563429 C5.50078264,16.1157714 5.02519587,15.8249143 4.6448405,15.4837714 L4.6448405,20.1186286 L0.499138017,22.1946286 L0.499138017,0.586057143 L4.6448405,0.586057143 L4.6448405,1.57977143 C5.0445843,1.23805714 5.51047686,0.932342857 6.04023719,0.662057143 C6.57056777,0.390628571 7.21722893,0.2552 7.97793967,0.2552 C8.81848512,0.2552 9.60884876,0.416342857 10.3513116,0.736342857 C11.0903529,1.05805714 11.741576,1.56491429 12.3027,2.25748571 C12.8626835,2.94891429 13.3040554,3.82662857 13.6245347,4.89005714 C13.9438736,5.95405714 14.1046835,7.21805714 14.1046835,8.68205714" id="Fill-15" fill="#2A2B2A" mask="url(#mask-2)"></path>
                            </g>
                        </g>
                        <g id="Group-2">
                            <polygon id="Fill-19" fill="url(#linearGradient-3)" points="14.9666667 0.000466666667 0 14.9684667 4.99 29.9304667 34.9233333 0.000466666667"></polygon>
                            <polygon id="Fill-22" fill="url(#linearGradient-4)" points="34.9393333 -0.0002 25.4733333 9.46446667 34.9393333 12.6218"></polygon>
                            <polygon id="Fill-25" fill="url(#linearGradient-5)" points="4.99 29.9304667 19.956 34.9218 19.956 14.9684667"></polygon>
                            <polygon id="Fill-28" fill="url(#linearGradient-6)" points="5.00733333 49.8671333 24.9633333 49.8671333 39.9306667 34.9004667 34.94 19.9358"></polygon>
                            <polygon id="Fill-31" fill="url(#linearGradient-7)" points="19.974 34.9004667 34.94 19.9358 19.974 14.9444667"></polygon>
                        </g>
                    </g>
                </g>
            </g>
        </g>
    </g>
</svg>