<svg version="1" xmlns="http://www.w3.org/2000/svg" width="1600" height="1600" viewBox="0 0 1200.000000 1200.000000"><path d="M299.6 179.6L120 359.2l2.6 7.2c1.4 3.9 2.5 7.9 2.5 8.8 0 1 .4 2 1 2.3.5.4.9 1.2.9 2s.5 2.6 1.1 4.2c.7 1.5 1.3 3.5 1.5 4.3.2 1.4 16.1 49 18.4 55.5.6 1.6 1.3 3.4 1.4 4 .2.5.6 1.9 1 3 .5 1.1 1.2 3.1 1.6 4.5.4 1.4 1.1 3.4 1.6 4.5.4 1.1.9 3.1 1.1 4.5.2 1.3.9 3 1.5 3.7.6.8 1.2 2.1 1.3 3.1.1.9.4 2.4.8 3.2.8 2 10.7 32.1 11.2 34 .2.8 2 6.2 4 12s3.8 10.9 3.9 11.5c.2.5.5 1.7.8 2.5.3.8 1.6 4.4 2.8 8 1.2 3.6 2.5 7.2 2.8 8 .6 1.7.9 2.8 1.6 5.5.3 1.1 3.5 10.8 7.1 21.5 3.7 10.7 6.8 20.2 7 21 .2.8.4 1.6.5 1.7.2.2.3.6.5 1 .1.5.7 2 1.3 3.6.7 1.5 1.4 3.9 1.6 5.3.3 1.4 1 3.2 1.7 4 .6.8.9 1.4.6 1.4-.3 0 1.3 5.5 3.7 12.2 2.4 6.8 4.4 12.7 4.6 13.3.3 1.3-.2-.3 9 27.5 4.4 13.5 8.4 25.2 8.7 26 .3.8.7 1.8.8 2.2.2.5.3.9.5 1 .1.2.3 1.2.5 2.3.5 3.4 5.9 18 6.8 18.6.5.4 5.2 2.1 10.6 3.9 5.3 1.7 10.5 3.5 11.6 4 6 2.4 43.3 14.4 44.8 14.4.9 0 1.7.3 1.7.7 0 .4 1.5 1.1 3.3 1.4 1.7.4 3.8 1.2 4.6 1.9.8.6 1.6 1 1.8.8.1-.1.4-.2.6-.1.1 0 .9.2 1.8.4 1.3.2 10.9 3.4 15.9 5.3.8.3 1.7.6 2 .7.3 0 5 1.6 10.5 3.5s10.3 3.4 10.7 3.5c.3 0 .9.3 1.3.7.4.4 1.3.4 2.1.1.8-.3 1.4 0 1.4.6s.6 1.1 1.4 1.1c1.2 0 17.7 5.3 39.6 12.8.8.3 1.7.6 2 .7 1.1.2 20.6 6.7 22 7.2.8.4 1.8.7 2.3.8.4.2.9.4 1.2.5.3.1.9.3 1.4.4.5 0 1.3.4 1.7.9.4.4 1.8.7 3 .7 1.3 0 2.6.5 2.9 1 .4.6 1 .8 1.5.5.5-.3 1.1-.1 1.5.5.4.6 1 .8 1.5.5.5-.3 1.1-.1 1.5.5.3.5 1.6 1 2.9 1 1.2 0 2.6.3 3 .8.4.4 1.1.7 1.4.7.8.1 31.8 10.3 34.2 11.3.8.3 2 .7 2.5.7.6.1 1.7.5 2.5.8 4.4 1.8 7.7 3 9 3.2.8.2 5.6 1.7 10.5 3.5 5 1.7 10.1 3.4 11.5 3.6 1.3.3 3 1 3.7 1.6.7.6 1.3.7 1.3.3 0-.4.6-.3 1.3.3.7.6 2.8 1.4 4.6 1.7 1.8.3 4.6 1.2 6.2 2 1.5.8 3.6 1.5 4.7 1.5 1 0 2.2.3 2.6.7.3.4 1.2.8 1.9.9 1 .2 16.2 5.2 21.7 7.2.8.3 1.8.6 2.3.7.4.2.9.4 1.2.5.3.1.8.3 1.3.5.4.1 1.4.4 2.2.8.8.3 2.4.7 3.5.9 1.1.2 2.2.5 2.5.8.3.3 3.1 1.3 6.2 2.3l5.7 1.8L420 1017c-98.5 98.4-179 179.1-179 179.4 0 .2 107.6.4 239.1.4h239l179.6-179.5c153.4-153.4 179.4-179.8 178.8-181.7-.3-1.1-1.1-3.9-1.7-6.1-.6-2.2-1.6-4.3-2.2-4.7-.6-.4-.8-.8-.4-.8s-.2-2.6-1.3-5.8c-1.1-3.1-2.2-6.4-2.4-7.2-.2-.8-1.6-4.9-3-9s-2.8-8.2-3-9c-.2-.8-1.6-4.9-3-9-1.5-4.1-2.9-8.6-3.1-10-.3-1.3-.9-2.9-1.3-3.5-.7-.8-1.6-3.5-2.6-7.5 0-.3-.9-3-2-6-1-3-2-6-2.1-6.5-.5-2.8-.9-4-1.4-4.5-.6-.5-3.9-10.7-4.1-12.5 0-.6-.5-1.6-1.1-2.3-.6-.6-.8-1.2-.5-1.2.4 0-.2-2-1.3-4.5s-1.7-4.5-1.4-4.5c.2 0-.1-1-.8-2.3-.6-1.2-1.3-3.1-1.5-4.2-.2-1.1-.7-2.9-1.2-4s-2.4-6.5-4.2-12c-1.7-5.5-3.4-10.7-3.7-11.5-.3-.8-.4-1.8-.4-2.3.1-.4-.3-.7-1-.7-.6 0-.9-.3-.6-.6.4-.3-.7-4.5-2.4-9.2-1.6-4.8-3.1-9.4-3.3-10.2-.2-.8-1.6-4.9-3.1-9s-3.2-9.5-3.9-12c-1.5-5.2-4.4-13.8-5.5-16-.4-.8-1.5-4.1-2.4-7.3-.9-3.2-2.2-7-2.8-8.5-1.3-3.1-1.8-5-2.2-7.4-.1-1-.5-2.1-.9-2.4-.4-.4-.7-1.6-.7-2.6s-.4-1.8-1-1.8c-.5 0-1-1.1-1-2.4 0-1.3-.7-3.6-1.4-5.2-.8-1.5-1.3-3.1-1-3.6.3-.4.1-.8-.3-.8-.5 0-1-1.2-1.1-2.6-.1-1.5-.6-3.2-1-3.8-.5-.6-1.4-3.1-2.1-5.6-.8-2.5-1.6-5.2-1.9-6-.3-.8-1.3-3.7-2.3-6.5-.9-2.7-1.5-5.3-1.3-5.7.2-.3 0-.9-.6-1.3-.5-.3-1-1.5-1-2.6 0-1-.4-1.9-1-1.9-.5 0-1-1.1-1-2.5s-.4-3.3-.9-4.3c-1.4-2.5-2.4-5.4-2.8-8.2-.2-1.3-.8-2.9-1.2-3.5-.9-1.2-3.3-9.6-3.1-10.9.1-.5-.2-1.2-.7-1.5-.5-.3-2.4-5.3-4.2-11.1-1.8-5.8-3.9-11.9-4.7-13.7-.8-1.7-1.4-3.6-1.4-4.1 0-.6-.4-2.1-.9-3.4-.5-1.3-1-2.8-1.1-3.3-.6-2.8-2.4-4.4-6.6-5.9-2.6-.9-5-1.3-5.5-1-.5.3-.9.1-.9-.5 0-.9-5.6-2.7-7.2-2.3-.5.1-.8-.2-.8-.8 0-.5-1-1-2.3-1-1.3 0-2.7-.3-3.1-.7-.3-.4-1.2-.8-1.9-.9-.7-.2-7.3-2.3-14.7-4.9-7.4-2.5-14.6-4.8-16-5.1-1.3-.3-2.9-.9-3.5-1.4-.6-.5-2.2-1-3.5-1.2-1.4-.2-3.1-.7-3.7-1.1-.7-.5-2.1-1-3-1.2-3.2-.6-35.8-11.6-37.6-12.6-1.1-.6-2.1-.8-2.4-.5-.3.3-1.5 0-2.7-.6-1.1-.7-2.3-1.3-2.6-1.3-.6-.1-14-4.5-16-5.2-.8-.3-1.9-.7-2.5-.9-.5-.1-4.3-1.4-8.2-2.8-4-1.3-7.3-2.2-7.3-1.9 0 .3-.6.1-1.2-.4-.7-.6-3.1-1.6-5.3-2.2-2.2-.7-4.9-1.6-6-2.1-3.4-1.4-35.8-12-38.4-12.6-1.4-.3-2.9-.8-3.5-1.2-.6-.3-1.5-.7-2.1-.9-.5-.1-4.4-1.3-8.5-2.8-4.1-1.4-8.6-2.8-10-3.1-1.3-.3-3-1-3.7-1.6-.7-.6-1.3-.7-1.3-.3 0 .4-.7.1-1.7-.6-.9-.8-1.8-1.3-2-1.1-.5.4-5.7-1-6.8-1.9-.5-.4-1.3-.7-1.8-.7-1.3-.1-20.1-6.2-21.9-7.3-1-.5-2.6-.9-3.6-.9s-2.2-.3-2.6-.7c-.3-.4-1.4-.8-2.2-.9-.9-.1-2.3-.6-3.2-1-.9-.4-2-.8-2.4-.9-.5-.2-1-.4-1.3-.5-.3-.1-.8-.3-1.2-.4-.5-.1-8.7-2.8-18.3-6-9.6-3.2-17.9-5.9-18.5-6-.5-.1-2-.7-3.2-1.4-1.2-.7-3-1.2-4.1-1.2-1 0-2.2-.3-2.6-.7-.3-.4-1.2-.8-1.9-.9-.7-.1-7.3-2.3-14.7-4.8-9.9-3.3-13.6-4.2-14.2-3.3-.6.9-.8.9-.8 0 0-.6 29.8-30.9 66.1-67.3 48.9-48.9 66.6-66 67.8-65.5 2.8 1.1 63.5 21.6 65.1 21.9.8.2 11.6 3.8 24 8 12.4 4.3 23.6 7.9 25 8.2 1.3.3 3.8 1.1 5.5 1.9 3.1 1.3 21.8 7.6 23.9 7.9.6.1 2.1.8 3.4 1.4 1.2.7 2.2 1.1 2.2.8 0-.3 1.6.2 3.5 1s3.6 1.4 3.7 1.3c.2 0 1 .2 1.8.5 11.9 4.3 43 14.2 43.5 13.8.3-.3.5-.1.5.5 0 .5.6 1 1.3 1 1.3 0 18.1 5.8 19.6 6.7.5.3 1.3 0 1.8-.7.6-.7.9-60.8.9-151.2l-.1-150L718.9.2 479.2 0 299.6 179.6zM785 174c0 .5-.5 1-1.1 1-.5 0-.7-.5-.4-1 .3-.6.8-1 1.1-1 .2 0 .4.4.4 1z"/></svg>